name rise30.9205peak61.366fall85.3838.mot
datacolumns 19
datarows 29
range 20.82493000000000 20.87160700000000
endheader
time	ground_force1_vx	ground_force1_vy	ground_force1_vz	ground_force1_px	ground_force1_py	ground_force1_pz	ground_force2_vx	ground_force2_vy	ground_force2_vz	ground_force2_px	ground_force2_py	ground_force2_pz	ground_torque1_x	ground_torque1_y	ground_torque1_z	ground_torque2_x	ground_torque2_y	ground_torque2_z	
20.82493000000000	-7.96972300000000	42.38773200000000	-5.64476200000000	0.34376100000000	0.00000000000000	0.09529200000000	-53.94636300000000	796.36376900000005	-48.28333200000000	0.14805700000000	0.00000000000000	-0.07465500000000	0.00000000000000	-3.60422900000000	0.00000000000000	0.00000000000000	-20.92521200000000	0.00000000000000	
20.82658600000000	-8.67600500000000	49.71712600000000	-6.32622300000000	0.34955100000000	0.00000000000000	0.09614000000000	-54.66718000000000	793.89008899999999	-47.99751400000000	0.14704200000000	0.00000000000000	-0.07458400000000	0.00000000000000	-4.11126200000000	0.00000000000000	0.00000000000000	-20.85782300000000	0.00000000000000	
20.82826000000000	-9.21379300000000	57.14741400000000	-6.93633300000000	0.35486400000000	0.00000000000000	0.09689400000000	-55.40081600000000	791.29175099999998	-47.69581500000000	0.14603200000000	0.00000000000000	-0.07451100000000	0.00000000000000	-4.58879600000000	0.00000000000000	0.00000000000000	-20.79078800000000	0.00000000000000	
20.82991800000000	-9.56112900000000	64.58331000000000	-7.45950400000000	0.35977200000000	0.00000000000000	0.09756900000000	-56.14667400000000	788.56574100000000	-47.37801800000000	0.14502700000000	0.00000000000000	-0.07443500000000	0.00000000000000	-5.02600700000000	0.00000000000000	0.00000000000000	-20.72405600000000	0.00000000000000	
20.83158700000000	-9.70540100000000	71.95244099999999	-7.88528600000000	0.36433200000000	0.00000000000000	0.09817700000000	-56.90405300000000	785.70899399999996	-47.04391300000000	0.14402800000000	0.00000000000000	-0.07435700000000	0.00000000000000	-5.41503000000000	0.00000000000000	0.00000000000000	-20.65756400000000	0.00000000000000	
20.83325800000000	-9.64313800000000	79.20761100000000	-8.20843500000000	0.36858900000000	0.00000000000000	0.09872900000000	-57.67215200000000	782.71840399999996	-46.69330000000000	0.14303500000000	0.00000000000000	-0.07427700000000	0.00000000000000	-5.75112200000000	0.00000000000000	0.00000000000000	-20.59122900000000	0.00000000000000	
20.83492200000000	-9.37911000000000	86.32661700000000	-8.42853800000000	0.37258100000000	0.00000000000000	0.09923100000000	-58.45006300000000	779.59083899999996	-46.32598900000000	0.14205000000000	0.00000000000000	-0.07419400000000	0.00000000000000	-6.03253300000000	0.00000000000000	0.00000000000000	-20.52495500000000	0.00000000000000	
20.83658900000000	-8.92489800000000	93.31004600000000	-8.54931600000000	0.37633800000000	0.00000000000000	0.09969000000000	-59.23677800000000	776.32314899999994	-45.94180300000000	0.14107200000000	0.00000000000000	-0.07411000000000	0.00000000000000	-6.26016400000000	0.00000000000000	0.00000000000000	-20.45863000000000	0.00000000000000	
20.83826000000000	-8.29716100000000	100.17756400000000	-8.57769900000000	0.37988600000000	0.00000000000000	0.10011300000000	-60.03118400000000	772.91217900000004	-45.54057900000000	0.14010300000000	0.00000000000000	-0.07402200000000	0.00000000000000	-6.43705600000000	0.00000000000000	0.00000000000000	-20.39212600000000	0.00000000000000	
20.83992100000000	-7.51578700000000	106.96329299999999	-8.52281300000000	0.38324700000000	0.00000000000000	0.10050300000000	-60.83206500000000	769.35478899999998	-45.12217000000000	0.13914400000000	0.00000000000000	-0.07393300000000	0.00000000000000	-6.56779500000000	0.00000000000000	0.00000000000000	-20.32530000000000	0.00000000000000	
20.84160500000000	-6.60209500000000	113.71079800000000	-8.39495100000000	0.38643700000000	0.00000000000000	0.10086500000000	-61.63810600000000	765.64785900000004	-44.68645000000000	0.13819500000000	0.00000000000000	-0.07384100000000	0.00000000000000	-6.65788900000000	0.00000000000000	0.00000000000000	-20.25799600000000	0.00000000000000	
20.84325600000000	-5.57724200000000	120.46817000000000	-8.20464500000000	0.38947300000000	0.00000000000000	0.10120100000000	-62.44789200000000	761.78830800000003	-44.23330900000000	0.13725700000000	0.00000000000000	-0.07374700000000	0.00000000000000	-6.71317700000000	0.00000000000000	0.00000000000000	-20.19004200000000	0.00000000000000	
20.84492900000000	-4.46091000000000	127.28357500000000	-7.96186200000000	0.39236700000000	0.00000000000000	0.10151500000000	-63.25991000000000	757.77310999999997	-43.76266200000000	0.13633100000000	0.00000000000000	-0.07365000000000	0.00000000000000	-6.73931300000000	0.00000000000000	0.00000000000000	-20.12125400000000	0.00000000000000	
20.84659200000000	-3.27033700000000	134.20154400000001	-7.67539900000000	0.39513100000000	0.00000000000000	0.10180800000000	-64.07255400000000	753.59930599999996	-43.27444600000000	0.13541700000000	0.00000000000000	-0.07355000000000	0.00000000000000	-6.74135000000000	0.00000000000000	0.00000000000000	-20.05143600000000	0.00000000000000	
20.84825700000000	-2.01970100000000	141.26015699999999	-7.35246500000000	0.39777300000000	0.00000000000000	0.10208300000000	-64.88412500000000	749.26401799999996	-42.76862600000000	0.13451600000000	0.00000000000000	-0.07344800000000	0.00000000000000	-6.72344800000000	0.00000000000000	0.00000000000000	-19.98037700000000	0.00000000000000	
20.84992100000000	-0.71985000000000	148.48917800000001	-6.99846100000000	0.40030300000000	0.00000000000000	0.10234100000000	-65.69284000000000	744.76447199999996	-42.24519300000000	0.13363000000000	0.00000000000000	-0.07334400000000	0.00000000000000	-6.68869100000000	0.00000000000000	0.00000000000000	-19.90785800000000	0.00000000000000	
20.85158900000000	0.62167100000000	155.90911500000001	-6.61693800000000	0.40272700000000	0.00000000000000	0.10258500000000	-66.49682700000000	740.09800600000005	-41.70416900000000	0.13275800000000	0.00000000000000	-0.07323700000000	0.00000000000000	-6.63903200000000	0.00000000000000	0.00000000000000	-19.83364800000000	0.00000000000000	
20.85325300000000	2.00034800000000	163.53110100000001	-6.20970000000000	0.40505100000000	0.00000000000000	0.10281500000000	-67.29413800000000	735.26209200000005	-41.14560800000000	0.13190100000000	0.00000000000000	-0.07312700000000	0.00000000000000	-6.57532100000000	0.00000000000000	0.00000000000000	-19.75750600000000	0.00000000000000	
20.85493000000000	3.41425200000000	171.35746700000001	-5.77702200000000	0.40728000000000	0.00000000000000	0.10303200000000	-68.08274900000001	730.25435100000004	-40.56959400000000	0.13106000000000	0.00000000000000	-0.07301400000000	0.00000000000000	-6.49742700000000	0.00000000000000	0.00000000000000	-19.67918300000000	0.00000000000000	
20.85658500000000	4.86346700000000	179.38281799999999	-5.31794700000000	0.40941900000000	0.00000000000000	0.10323800000000	-68.86056700000000	725.07256800000005	-39.97625100000000	0.13023600000000	0.00000000000000	-0.07289900000000	0.00000000000000	-6.40440000000000	0.00000000000000	0.00000000000000	-19.59842100000000	0.00000000000000	
20.85825400000000	6.34948600000000	187.59546300000000	-4.83062000000000	0.41147300000000	0.00000000000000	0.10343300000000	-69.62543500000000	719.71471699999995	-39.36573500000000	0.12942800000000	0.00000000000000	-0.07278100000000	0.00000000000000	-6.29468000000000	0.00000000000000	0.00000000000000	-19.51495700000000	0.00000000000000	
20.85992800000000	7.87460000000000	195.97900300000001	-4.31263400000000	0.41344300000000	0.00000000000000	0.10361900000000	-70.37513600000000	714.17897100000005	-38.73824100000000	0.12863900000000	0.00000000000000	-0.07266000000000	0.00000000000000	-6.16630900000000	0.00000000000000	0.00000000000000	-19.42851900000000	0.00000000000000	
20.86158500000000	9.44134000000000	204.51394700000000	-3.76135100000000	0.41533400000000	0.00000000000000	0.10379600000000	-71.10740400000000	708.46372399999996	-38.09400500000000	0.12786800000000	0.00000000000000	-0.07253600000000	0.00000000000000	-6.01714100000000	0.00000000000000	0.00000000000000	-19.33883200000000	0.00000000000000	
20.86325800000000	11.05200300000000	213.17922899999999	-3.17419400000000	0.41714700000000	0.00000000000000	0.10396400000000	-71.81992400000000	702.56760899999995	-37.43329900000000	0.12711500000000	0.00000000000000	-0.07240900000000	0.00000000000000	-5.84503100000000	0.00000000000000	0.00000000000000	-19.24561700000000	0.00000000000000	
20.86493000000000	12.70827800000000	221.95352800000001	-2.54887700000000	0.41888500000000	0.00000000000000	0.10412500000000	-72.51034500000000	696.48951399999999	-36.75643800000000	0.12638200000000	0.00000000000000	-0.07227900000000	0.00000000000000	-5.64799200000000	0.00000000000000	0.00000000000000	-19.14859000000000	0.00000000000000	
20.86660500000000	14.41098200000000	230.81633700000000	-1.88358000000000	0.42055000000000	0.00000000000000	0.10427800000000	-73.17628200000000	690.22860100000003	-36.06377800000000	0.12566800000000	0.00000000000000	-0.07214700000000	0.00000000000000	-5.42431800000000	0.00000000000000	0.00000000000000	-19.04746600000000	0.00000000000000	
20.86825800000000	16.15990600000000	239.74876100000000	-1.17706100000000	0.42214300000000	0.00000000000000	0.10442500000000	-73.81532600000000	683.78432299999997	-35.35571600000000	0.12497500000000	0.00000000000000	-0.07201100000000	0.00000000000000	-5.17267200000000	0.00000000000000	0.00000000000000	-18.94195900000000	0.00000000000000	
20.86992300000000	17.95375900000000	248.73402100000001	-0.42871500000000	0.42366500000000	0.00000000000000	0.10456500000000	-74.42505199999999	677.15643699999998	-34.63269100000000	0.12430200000000	0.00000000000000	-0.07187200000000	0.00000000000000	-4.89212500000000	0.00000000000000	0.00000000000000	-18.83178400000000	0.00000000000000	
20.87160700000000	19.79020000000000	257.75770599999998	0.36142500000000	0.42511800000000	0.00000000000000	0.10469900000000	-75.00302300000000	670.34501799999998	-33.89518500000000	0.12365000000000	0.00000000000000	-0.07173000000000	0.00000000000000	-4.58217600000000	0.00000000000000	0.00000000000000	-18.71665300000000	0.00000000000000	
